<?xml version="1.0" encoding="UTF-8" standalone="no"?>
<!-- Generator: Adobe Illustrator 16.0.0, SVG Export Plug-In . SVG Version: 6.00 Build 0)  -->

<svg
   xmlns:dc="http://purl.org/dc/elements/1.1/"
   xmlns:cc="http://creativecommons.org/ns#"
   xmlns:rdf="http://www.w3.org/1999/02/22-rdf-syntax-ns#"
   xmlns:svg="http://www.w3.org/2000/svg"
   xmlns="http://www.w3.org/2000/svg"
   xmlns:sodipodi="http://sodipodi.sourceforge.net/DTD/sodipodi-0.dtd"
   xmlns:inkscape="http://www.inkscape.org/namespaces/inkscape"
   version="1.1"
   id="Слой_1"
   x="0px"
   y="0px"
   width="12.141"
   height="12.141"
   viewBox="0 0 12.141 12.141"
   enable-background="new 0 0 23.333 23.334"
   xml:space="preserve"
   sodipodi:docname="icon link ext.svg"
   inkscape:version="0.92.4 (5da689c313, 2019-01-14)"><metadata
   id="metadata13"><rdf:RDF><cc:Work
       rdf:about=""><dc:format>image/svg+xml</dc:format><dc:type
         rdf:resource="http://purl.org/dc/dcmitype/StillImage" /><dc:title></dc:title></cc:Work></rdf:RDF></metadata><defs
   id="defs11" /><sodipodi:namedview
   pagecolor="#ffffff"
   bordercolor="#666666"
   borderopacity="1"
   objecttolerance="10"
   gridtolerance="10"
   guidetolerance="10"
   inkscape:pageopacity="0"
   inkscape:pageshadow="2"
   inkscape:window-width="640"
   inkscape:window-height="480"
   id="namedview9"
   showgrid="false"
   fit-margin-top="0"
   fit-margin-left="0"
   fit-margin-right="0"
   fit-margin-bottom="0"
   inkscape:zoom="10.113997"
   inkscape:cx="6.0695001"
   inkscape:cy="6.0710002"
   inkscape:window-x="0"
   inkscape:window-y="0"
   inkscape:window-maximized="0"
   inkscape:current-layer="Слой_1" />
<g
   id="g6"
   transform="translate(-5.597,-5.597)">
	<path
   d="m 5.597,7.114 c 2.01,0 4.021,0 6.053,0 0,0.509 0,0.997 0,1.509 -1.503,0 -2.996,0 -4.511,0 0,2.532 0,5.043 0,7.576 2.504,0 5.016,0 7.56,0 0,-1.5 0,-3.002 0,-4.516 0.514,0 0.995,0 1.5,0 0,2.002 0,4.01 0,6.055 -3.532,0 -7.065,0 -10.602,0 0,-3.541 0,-7.083 0,-10.624 z"
   id="path2"
   inkscape:connector-curvature="0"
   style="clip-rule:evenodd;fill-rule:evenodd" />
	<path
   d="m 17.738,5.597 c 0,1.238 0,2.477 0,3.786 -0.47,-0.482 -0.888,-0.912 -1.337,-1.373 -1.326,1.359 -2.615,2.68 -3.89,3.984 -0.408,-0.41 -0.755,-0.76 -1.14,-1.147 1.294,-1.262 2.614,-2.552 3.948,-3.854 -0.481,-0.5 -0.914,-0.948 -1.347,-1.396 1.257,0 2.511,0 3.766,0 z"
   id="path4"
   inkscape:connector-curvature="0"
   style="clip-rule:evenodd;fill-rule:evenodd" />
</g>
</svg>