<?xml version="1.0" encoding="UTF-8" standalone="no"?>
<!-- Generator: Adobe Illustrator 22.1.0, SVG Export Plug-In . SVG Version: 6.00 Build 0)  -->

<svg
   xmlns:dc="http://purl.org/dc/elements/1.1/"
   xmlns:cc="http://creativecommons.org/ns#"
   xmlns:rdf="http://www.w3.org/1999/02/22-rdf-syntax-ns#"
   xmlns:svg="http://www.w3.org/2000/svg"
   xmlns="http://www.w3.org/2000/svg"
   xmlns:sodipodi="http://sodipodi.sourceforge.net/DTD/sodipodi-0.dtd"
   xmlns:inkscape="http://www.inkscape.org/namespaces/inkscape"
   version="1.1"
   id="Слой_1"
   x="0px"
   y="0px"
   viewBox="0 0 137.49999 27.100001"
   xml:space="preserve"
   sodipodi:docname="header_logo_white.svg"
   width="137.5"
   height="27.1"
   inkscape:version="0.92.4 (5da689c313, 2019-01-14)"><metadata
   id="metadata25"><rdf:RDF><cc:Work
       rdf:about=""><dc:format>image/svg+xml</dc:format><dc:type
         rdf:resource="http://purl.org/dc/dcmitype/StillImage" /><dc:title></dc:title></cc:Work></rdf:RDF></metadata><defs
   id="defs23" /><sodipodi:namedview
   pagecolor="#ffffff"
   bordercolor="#666666"
   borderopacity="1"
   objecttolerance="10"
   gridtolerance="10"
   guidetolerance="10"
   inkscape:pageopacity="0"
   inkscape:pageshadow="2"
   inkscape:window-width="1920"
   inkscape:window-height="1017"
   id="namedview21"
   showgrid="false"
   fit-margin-top="0"
   fit-margin-left="0"
   fit-margin-right="0"
   fit-margin-bottom="0"
   inkscape:zoom="3.8913912"
   inkscape:cx="82.280424"
   inkscape:cy="31.258736"
   inkscape:window-x="-8"
   inkscape:window-y="-8"
   inkscape:window-maximized="1"
   inkscape:current-layer="Слой_1" />
<style
   type="text/css"
   id="style2">
	.st0{fill:#FFFFFF;}
</style>
<g
   id="g18"
   transform="translate(-0.3,-0.3)">
	<path
   class="st0"
   d="m 10.8,9.1 c 2.3,0 4.3,0.8 5.7,2.5 1.5,1.7 2.3,3.9 2.3,6.6 0,2.7 -0.9,4.9 -2.5,6.6 -1.7,1.7 -4,2.5 -6.8,2.5 -2.3,0 -4.9,-0.5 -6.8,-2.5 -2,-2.1 -2.4,-4.7 -2.4,-7.8 0,-4.5 0,-16.7 0,-16.7 h 5.3 v 11.1 c 0.7,-0.8 1.3,-1.3 2.3,-1.7 1,-0.5 2,-0.6 2.9,-0.6 z m -1.2,4.8 c -1.2,0 -2.1,0.4 -2.9,1.2 -0.8,0.8 -1.2,1.9 -1.2,3.1 0,1.2 0.4,2.3 1.2,3.1 0.8,0.8 1.7,1.2 2.9,1.2 1.2,0 2.1,-0.4 2.8,-1.2 0.8,-0.8 1.2,-1.9 1.2,-3.1 0,-1.2 -0.4,-2.3 -1.2,-3.1 -0.7,-0.8 -1.6,-1.2 -2.8,-1.2 z"
   id="path4"
   inkscape:connector-curvature="0"
   style="fill:#ffffff" />
	<path
   class="st0"
   d="m 40.9,26.9 h -4.3 l -0.5,-2.4 c -0.7,0.9 -1.5,1.6 -2.3,2 -0.9,0.5 -1.9,0.7 -2.9,0.7 -2.3,0 -4.3,-0.8 -5.9,-2.5 -1.6,-1.7 -2.3,-3.9 -2.3,-6.4 0,-2.5 0.8,-4.7 2.3,-6.4 1.6,-1.7 3.5,-2.5 5.9,-2.5 1.1,0 2,0.3 2.9,0.7 0.9,0.5 1.7,1.2 2.3,2 l 0.5,-2.4 h 4.3 z M 27.4,18.2 c 0,1.3 0.4,2.4 1.2,3.3 0.8,0.9 1.9,1.3 3.1,1.3 1.2,0 2.3,-0.4 3.1,-1.3 0.8,-0.9 1.2,-2 1.2,-3.3 0,-1.3 -0.5,-2.4 -1.3,-3.4 -0.8,-0.9 -1.9,-1.3 -3.1,-1.3 -1.2,0 -2.3,0.4 -3.1,1.3 -0.7,1 -1.1,2 -1.1,3.4 z"
   id="path6"
   inkscape:connector-curvature="0"
   style="fill:#ffffff" />
	<rect
   x="47.400002"
   y="0.30000001"
   class="st0"
   width="4"
   height="26.6"
   id="rect8"
   style="fill:#ffffff" />
	<path
   class="st0"
   d="m 74,26.9 h -2.7 l -0.4,-2.7 c -0.7,0.9 -1.6,1.7 -2.5,2.3 -0.9,0.6 -2.1,0.8 -3.2,0.8 -2.4,0 -4.3,-0.8 -5.9,-2.5 -1.6,-1.7 -2.4,-3.7 -2.4,-6.3 0,-2.6 0.8,-4.7 2.4,-6.3 1.6,-1.7 3.6,-2.5 5.9,-2.5 1.2,0 2.3,0.3 3.3,0.8 1.1,0.5 1.9,1.2 2.5,2.3 l 0.4,-2.7 h 2.7 v 16.8 c 0,0 -0.1,0 -0.1,0 z M 60,18.4 c 0,1.7 0.5,3.1 1.6,4.3 1.1,1.2 2.4,1.7 4,1.7 1.6,0 2.9,-0.5 4,-1.7 1.1,-1.2 1.6,-2.5 1.6,-4.3 0,-1.8 -0.5,-3.1 -1.6,-4.3 -1.1,-1.2 -2.4,-1.7 -4,-1.7 -1.6,0 -2.9,0.5 -4,1.7 -1.1,1.3 -1.6,2.6 -1.6,4.3 z"
   id="path10"
   inkscape:connector-curvature="0"
   style="fill:#ffffff" />
	<path
   class="st0"
   d="m 90.1,12.8 c -0.8,0 -1.7,0.3 -2.5,0.8 -0.8,0.5 -1.5,1.2 -2.1,2.3 V 27 H 81.9 V 9.9 H 85 l 0.5,2.5 c 0.7,-0.9 1.6,-1.6 2.5,-2.1 0.9,-0.5 2,-0.8 3.1,-0.8 2,0 3.6,0.7 4.8,2 1.2,1.3 1.7,3.1 1.7,5.5 V 27 H 94 V 17.5 C 94,16 93.6,15 92.9,14.2 c -0.7,-1 -1.6,-1.4 -2.8,-1.4 z"
   id="path12"
   inkscape:connector-curvature="0"
   style="fill:#ffffff" />
	<path
   class="st0"
   d="m 106.8,18.3 c 0,1.5 0.4,2.7 1.3,3.5 0.9,0.9 2,1.3 3.3,1.3 0.8,0 1.5,-0.1 2.1,-0.4 0.7,-0.3 1.3,-0.7 1.9,-1.3 l 2.8,2.9 c -0.9,0.9 -2,1.7 -3.1,2.1 -1.1,0.5 -2.4,0.7 -3.7,0.7 -2.7,0 -4.8,-0.8 -6.6,-2.5 -1.7,-1.7 -2.5,-3.9 -2.5,-6.4 0,-2.5 0.8,-4.7 2.5,-6.4 1.7,-1.7 3.9,-2.5 6.6,-2.5 1.2,0 2.3,0.3 3.5,0.7 1.1,0.4 2.1,1.1 3.1,2 l -2.8,2.9 c -0.5,-0.5 -1.1,-0.8 -1.7,-1.1 -0.5,-0.3 -1.2,-0.4 -1.9,-0.4 -1.3,0 -2.4,0.4 -3.3,1.3 -1.1,0.9 -1.5,2.1 -1.5,3.6 z"
   id="path14"
   inkscape:connector-curvature="0"
   style="fill:#ffffff" />
	<path
   class="st0"
   d="m 134.2,21.7 2.7,2.9 c -0.9,0.9 -2,1.6 -3.1,2.1 -1.2,0.5 -2.4,0.7 -3.9,0.7 -2.8,0 -5.1,-0.8 -6.8,-2.5 -1.7,-1.7 -2.7,-3.9 -2.7,-6.6 0,-2.5 0.8,-4.7 2.5,-6.4 1.7,-1.7 3.9,-2.5 6.4,-2.5 2.5,0 4.5,0.8 6.1,2.5 1.6,1.7 2.4,3.9 2.4,6.4 0,0.3 0,0.5 0,0.8 0,0.3 0,0.5 -0.1,0.7 h -13 c 0.3,1.1 0.8,2 1.6,2.7 0.8,0.7 1.9,1.1 3.2,1.1 0.9,0 1.7,-0.1 2.4,-0.4 1.1,-0.5 1.6,-1 2.3,-1.5 z m -5,-8.7 c -1.1,0 -2,0.3 -2.8,0.9 -0.8,0.6 -1.3,1.5 -1.6,2.7 h 8.7 c -0.3,-1.1 -0.7,-2 -1.5,-2.7 -0.6,-0.7 -1.6,-0.9 -2.8,-0.9 z"
   id="path16"
   inkscape:connector-curvature="0"
   style="fill:#ffffff" />
</g>
</svg>
