<svg id="Layer_1" data-name="Layer 1" xmlns="http://www.w3.org/2000/svg" viewBox="0 0 340.9 43.34">
  <defs>
    <style>
      .cls-1 {
        fill: #666666;
      }
    </style>
  </defs>
  <title>Glavstroy-logo</title>
  <g>
    <g>
      <path class="cls-1" d="M64.73,10.16H84.66v5.28H70.73V38.33h-6Z"/>
      <path class="cls-1" d="M93.44,18.61l.68-8.45h20V38.33h-6V15.44H99.15l-.3,3.93c-1.39,17.35-6,19.47-11.74,19.47V33.05C89.94,33.05,92.47,31.23,93.44,18.61Z"/>
      <path class="cls-1" d="M142.1,33.47H129.51l-1.77,4.86h-6.59l10.9-28.17h7.51l10.86,28.17h-6.55Zm-11-5.19h9.33l-4.64-12.92Z"/>
      <path class="cls-1" d="M157.74,10.16h14.82c5.37,0,8.11,3.42,8.11,7.18a6.26,6.26,0,0,1-4.86,6.46,6.84,6.84,0,0,1,5.41,6.93c0,4.22-2.83,7.6-8.19,7.6H157.74Zm13.51,11.32a3.11,3.11,0,1,0,0-6.21h-7.51v6.21Zm.21,11.74c2.29,0,3.64-1.31,3.64-3.34,0-1.77-1.27-3.29-3.64-3.29h-7.72v6.63Z"/>
      <path class="cls-1" d="M187.89,24.27c0-8.66,6.55-14.57,14.78-14.57a13,13,0,0,1,12,6.88l-5.15,2.53A7.73,7.73,0,0,0,202.67,15c-4.89,0-8.61,3.93-8.61,9.25s3.72,9.24,8.61,9.24a7.65,7.65,0,0,0,6.85-4.09l5.15,2.49a13.1,13.1,0,0,1-12,6.93C194.44,38.84,187.89,32.92,187.89,24.27Z"/>
      <path class="cls-1" d="M228,15.44h-8.24V10.16h22.47v5.28h-8.19V38.33h-6Z"/>
      <path class="cls-1" d="M250.15,10.16h13.18c6.12,0,9.46,4.14,9.46,9.08s-3.38,9-9.46,9h-7.18V38.33h-6Zm12.38,5.15h-6.38v7.77h6.38a3.89,3.89,0,1,0,0-7.77Z"/>
      <path class="cls-1" d="M293.11,9.7c8.54,0,14.74,6.08,14.74,14.57s-6.2,14.57-14.74,14.57-14.69-6.09-14.69-14.57S284.63,9.7,293.11,9.7Zm0,5.32c-5.19,0-8.53,4-8.53,9.25s3.34,9.24,8.53,9.24,8.58-4,8.58-9.24S298.31,15,293.11,15Z"/>
      <path class="cls-1" d="M321.68,10.16V29.42l13.05-19.26h6.17V38.33h-6V18.4L321.47,38.33h-5.78V10.16Z"/>
      <rect class="cls-1" x="321.4" width="13.94" height="5.28"/>
    </g>
    <g>
      <polygon class="cls-1" points="23.15 18.07 0 34.28 0 43.34 23.15 43.34 23.15 18.07"/>
      <polygon class="cls-1" points="26.29 8.21 42.44 19.52 42.44 0.9 0 0.9 0 26.61 26.29 8.21"/>
      <polygon class="cls-1" points="29.43 18.07 29.43 43.34 42.44 43.34 42.44 27.18 29.43 18.07"/>
    </g>
  </g>
</svg>
