<?xml version="1.0" encoding="utf-8"?>
<!-- Generator: Adobe Illustrator 22.0.1, SVG Export Plug-In . SVG Version: 6.00 Build 0)  -->
<svg version="1.1" id="Слой_1" xmlns="http://www.w3.org/2000/svg" xmlns:xlink="http://www.w3.org/1999/xlink" x="0px" y="0px"
	 viewBox="0 0 132 36.7" style="enable-background:new 0 0 132 36.7;" xml:space="preserve">
<style type="text/css">
	.st0{fill:#2B2B2D;}
	.st1{fill:#4A993C;}
	.st2{fill:none;stroke:#4A993C;stroke-miterlimit:10;}
</style>
<g>
	<path class="st0" d="M8.9,23.7c-1.1,0-2,0.4-2.8,1.2c-0.7,0.8-1.1,1.8-1.1,3c0,1.2,0.4,2.2,1.1,3c0.7,0.8,1.7,1.2,2.8,1.2
		c1.1,0,2-0.4,2.8-1.2c0.7-0.8,1.1-1.8,1.1-3c0-1.2-0.4-2.2-1.1-3C11,24.1,10,23.7,8.9,23.7z M10.1,19.1c2.3,0,4.1,0.8,5.6,2.5
		c1.5,1.7,2.2,3.8,2.2,6.3c0,2.5-0.9,4.7-2.5,6.3c-1.7,1.7-3.8,2.5-6.6,2.5c-2.2,0-4.8-0.6-6.7-2.5c-2-2-2.3-4.5-2.3-7.5
		c0-4.3,0-16.2,0-16.2h5.2v10.8c0.6-0.7,1.3-1.3,2.2-1.7C8.2,19.3,9.1,19.1,10.1,19.1z"/>
	<path class="st0" d="M26.4,27.9c0,1.2,0.4,2.2,1.1,3c0.8,0.8,1.7,1.2,2.8,1.2c1.1,0,2.1-0.4,2.8-1.2c0.8-0.8,1.1-1.8,1.1-3
		c0-1.2-0.4-2.2-1.1-3c-0.8-0.8-1.7-1.2-2.8-1.2c-1.1,0-2.1,0.4-2.8,1.2C26.8,25.7,26.4,26.7,26.4,27.9z M39.3,36.3h-4.5l-0.6-2.3
		c-0.6,0.9-1.4,1.5-2.2,1.9c-0.8,0.4-1.8,0.7-2.8,0.7c-2.2,0-4.1-0.8-5.6-2.5c-1.5-1.7-2.2-3.8-2.2-6.3c0-2.5,0.7-4.6,2.2-6.3
		c1.5-1.7,3.4-2.5,5.6-2.5c1,0,1.9,0.2,2.8,0.7c0.9,0.4,1.6,1.1,2.2,1.9l0.6-2.2h4.5V36.3z"/>
	<path class="st0" d="M45.4,10.6h4.7v25.8h-4.7V10.6z"/>
	<path class="st0" d="M59.3,28c0,1.4,0.4,2.5,1.3,3.5c0.9,0.9,1.9,1.4,3.2,1.4c1.3,0,2.4-0.5,3.2-1.4c0.9-0.9,1.3-2.1,1.3-3.5
		c0-1.4-0.4-2.5-1.3-3.5c-0.9-0.9-1.9-1.4-3.2-1.4c-1.3,0-2.4,0.5-3.2,1.4C59.7,25.5,59.3,26.6,59.3,28z M72.4,36.3h-3.8L68.2,34
		c-0.6,0.9-1.4,1.6-2.3,2c-0.9,0.5-1.9,0.7-2.9,0.7c-2.3,0-4.2-0.8-5.7-2.5C55.8,32.5,55,30.5,55,28c0-2.5,0.8-4.6,2.3-6.2
		c1.5-1.7,3.4-2.5,5.7-2.5c1.1,0,2,0.2,2.9,0.7c0.9,0.5,1.7,1.1,2.3,2l0.5-2.3h3.8V36.3z"/>
	<path class="st0" d="M86.8,23c-0.8,0-1.6,0.2-2.3,0.7c-0.7,0.5-1.4,1.2-1.9,2v10.7h-3.9V19.8H82l0.5,2.5c0.7-0.9,1.5-1.6,2.4-2.1
		c0.9-0.5,1.9-0.7,2.9-0.7c2,0,3.5,0.6,4.7,1.9c1.1,1.3,1.7,3.1,1.7,5.3v9.7h-3.9v-9.2c0-1.3-0.3-2.3-0.9-3.1
		C88.7,23.3,87.9,23,86.8,23z"/>
	<path class="st0" d="M102.3,28.1c0,1.6,0.5,2.9,1.5,3.9c1,1,2.2,1.5,3.7,1.5c0.8,0,1.5-0.2,2.2-0.5c0.7-0.3,1.4-0.8,2-1.4l2.2,2.3
		c-0.9,0.9-1.9,1.6-2.9,2.1c-1.1,0.4-2.2,0.7-3.5,0.7c-2.5,0-4.5-0.8-6.2-2.5c-1.6-1.6-2.5-3.7-2.5-6.2c0-2.5,0.8-4.5,2.5-6.2
		c1.6-1.6,3.7-2.5,6.2-2.5c1.1,0,2.2,0.2,3.2,0.6c1,0.4,2,1,2.8,1.8l-2.2,2.3c-0.6-0.5-1.2-0.9-1.8-1.2c-0.6-0.3-1.3-0.4-2-0.4
		c-1.5,0-2.7,0.5-3.7,1.5C102.8,25.2,102.3,26.5,102.3,28.1z"/>
	<path class="st0" d="M124.1,22.1c-1.3,0-2.5,0.4-3.4,1.3c-1,0.9-1.6,2-1.8,3.4h10.2c-0.2-1.4-0.8-2.6-1.7-3.4
		C126.5,22.5,125.4,22.1,124.1,22.1z M129.1,32.2l1.8,1.9c-0.8,0.9-1.8,1.5-2.9,1.9c-1.1,0.4-2.2,0.6-3.5,0.6
		c-2.5,0-4.6-0.8-6.2-2.4c-1.6-1.6-2.5-3.7-2.5-6.1c0-2.4,0.8-4.5,2.4-6.1c1.6-1.6,3.5-2.5,5.9-2.5c2.3,0,4.2,0.8,5.7,2.4
		c1.5,1.6,2.2,3.7,2.2,6.1c0,0.2,0,0.4,0,0.5c0,0.2,0,0.3-0.1,0.4h-13.1c0.2,1.5,0.8,2.7,1.8,3.6c1,0.9,2.3,1.4,3.9,1.4
		c0.9,0,1.8-0.2,2.5-0.5C127.7,33.3,128.4,32.9,129.1,32.2z"/>
</g>
<path class="st1" d="M103.8,10.8c0.8,4.1-4.3,6.3-7.1,5.1c-1-0.4-1.8-1.1-2.4-1.9c-1-1.5-1.3-3.4-0.6-5.2C94.8,6,104.2,0,104.2,0
	S102.2,2.9,103.8,10.8z"/>
<path class="st2" d="M97,15.5c0,0-0.7,1,0,2.7"/>
</svg>
